<svg width="27" height="27" viewBox="0 0 27 27" fill="none" xmlns="http://www.w3.org/2000/svg">
<g clip-path="url(#clip0_20_2909)">
<path d="M13.5 5.625C15.3188 5.625 16.9889 6.24772 18.3221 7.28332L22.4139 3.3796C20.0349 1.28245 16.9207 0 13.5 0C8.31644 0 3.82124 2.9249 1.55902 7.21108L6.10901 10.8031C7.21121 7.78429 10.0997 5.625 13.5 5.625Z" fill="#F44336"/>
<path d="M26.8831 15.1896C26.9534 14.6365 27 14.0723 27 13.5C27 12.5349 26.8946 11.5952 26.7021 10.6875H13.5V16.3125H20.797C20.2067 17.8467 19.1556 19.145 17.8178 20.0469L22.3846 23.6523C24.8055 21.5274 26.4622 18.5517 26.8831 15.1896Z" fill="#2196F3"/>
<path d="M5.625 13.5C5.625 12.5511 5.80147 11.6456 6.10902 10.8031L1.55903 7.21108C0.567375 9.09002 0 11.2277 0 13.5C0 15.7469 0.556938 17.8609 1.52799 19.7246L6.08375 16.1279C5.79199 15.305 5.625 14.423 5.625 13.5Z" fill="#FFC107"/>
<path d="M13.5 21.375C10.0738 21.375 7.16675 19.183 6.08377 16.1279L1.52802 19.7246C3.77918 24.0452 8.29106 27 13.5 27C16.9063 27 20.0124 25.7346 22.3847 23.6523L17.8178 20.0469C16.5839 20.8788 15.107 21.375 13.5 21.375Z" fill="#00B060"/>
<path opacity="0.1" d="M13.5 26.7188C9.52684 26.7188 5.95429 25.0795 3.42847 22.4677C5.90101 25.2425 9.491 27 13.5 27C17.4719 27 21.0321 25.2772 23.4991 22.5459C20.9808 25.1152 17.4353 26.7188 13.5 26.7188Z" fill="black"/>
<path opacity="0.1" d="M13.5 16.0312V16.3125H20.797L20.9109 16.0312H13.5Z" fill="black"/>
<path d="M26.9937 13.6654C26.9946 13.61 27 13.5555 27 13.5C27 13.4843 26.9975 13.4691 26.9974 13.4534C26.9967 13.5242 26.9931 13.5943 26.9937 13.6654Z" fill="#E6E6E6"/>
<path opacity="0.2" d="M13.5 10.6875V10.9688H26.7588C26.7411 10.8759 26.7217 10.7796 26.7021 10.6875H13.5Z" fill="white"/>
<path d="M26.7021 10.6875H13.5V16.3125H20.797C19.6622 19.2618 16.8493 21.375 13.5 21.375C9.15079 21.375 5.625 17.8492 5.625 13.5C5.625 9.15072 9.15079 5.625 13.5 5.625C15.0771 5.625 16.5306 6.1095 17.7621 6.90827C17.9506 7.03077 18.145 7.14578 18.3221 7.28332L22.4139 3.3796L22.3216 3.3086C19.9541 1.2567 16.879 0 13.5 0C6.04413 0 0 6.04413 0 13.5C0 20.9558 6.04413 27 13.5 27C20.3824 27 26.0499 21.8461 26.8831 15.1896C26.9534 14.6365 27 14.0723 27 13.5C27 12.5349 26.8946 11.5952 26.7021 10.6875Z" fill="url(#paint0_linear_20_2909)"/>
<path opacity="0.1" d="M17.7621 6.62702C16.5306 5.82825 15.0771 5.34375 13.5 5.34375C9.15079 5.34375 5.625 8.86947 5.625 13.2188C5.625 13.2662 5.62564 13.3033 5.62646 13.3506C5.70234 9.06695 9.19823 5.625 13.5 5.625C15.0771 5.625 16.5306 6.1095 17.7621 6.90827C17.9506 7.03077 18.145 7.14578 18.3221 7.28332L22.4139 3.3796L18.3221 7.00207C18.145 6.86453 17.9506 6.74952 17.7621 6.62702Z" fill="black"/>
<path opacity="0.2" d="M13.5 0.28125C16.8469 0.28125 19.8933 1.51694 22.2517 3.5343L22.4139 3.3796L22.2901 3.27181C19.9226 1.2199 16.879 0 13.5 0C6.04413 0 0 6.04413 0 13.5C0 13.5474 0.00659183 13.5932 0.00707242 13.6406C0.08329 6.25033 6.09158 0.28125 13.5 0.28125Z" fill="white"/>
</g>
<defs>
<linearGradient id="paint0_linear_20_2909" x1="0" y1="13.5" x2="27" y2="13.5" gradientUnits="userSpaceOnUse">
<stop stop-color="white" stop-opacity="0.2"/>
<stop offset="1" stop-color="white" stop-opacity="0"/>
</linearGradient>
<clipPath id="clip0_20_2909">
<rect width="27" height="27" fill="white"/>
</clipPath>
</defs>
</svg>
